<svg width="336" height="54" viewBox="0 0 336 54" fill="none" xmlns="http://www.w3.org/2000/svg">
<g clip-path="url(#clip0_5106_520)">
<path d="M4.0295 12.3528C4.3109 12.3573 4.59038 12.3058 4.85167 12.2012C5.11295 12.0966 5.35081 11.941 5.5514 11.7436C5.75198 11.5462 5.91128 11.3108 6.02002 11.0513C6.12875 10.7917 6.18475 10.5131 6.18475 10.2316C6.18475 9.95017 6.12875 9.67155 6.02002 9.41196C5.91128 9.15237 5.75198 8.91702 5.5514 8.7196C5.35081 8.52218 5.11295 8.36665 4.85167 8.26206C4.59038 8.15747 4.3109 8.10591 4.0295 8.11039C2.87051 8.12794 1.94006 9.07254 1.94006 10.2317C1.94006 11.3909 2.87051 12.3353 4.0295 12.3528ZM36.5178 10.5548C36.7987 10.5584 37.0775 10.5062 37.3381 10.4012C37.5986 10.2962 37.8357 10.1405 38.0356 9.94314C38.2355 9.74577 38.3942 9.51066 38.5025 9.25146C38.6109 8.99227 38.6666 8.71414 38.6666 8.43322C38.6665 8.1523 38.6107 7.87419 38.5023 7.61502C38.394 7.35585 38.2352 7.12078 38.0352 6.92346C37.8353 6.72615 37.5981 6.5705 37.3376 6.46557C37.077 6.36063 36.7982 6.30849 36.5173 6.31218C35.3583 6.32973 34.428 7.27451 34.428 8.43367C34.4282 9.59284 35.3588 10.5374 36.5178 10.5548Z" fill="#FF598B"/>
<path d="M38.2393 37.8084C38.5208 37.8129 38.8002 37.7613 39.0615 37.6566C39.3228 37.552 39.5606 37.3965 39.7612 37.199C39.9617 37.0016 40.121 36.7662 40.2297 36.5066C40.3384 36.247 40.3944 35.9684 40.3943 35.6869C40.3943 35.4055 40.3383 35.1269 40.2295 34.8673C40.1207 34.6077 39.9614 34.3724 39.7608 34.175C39.5602 33.9776 39.3223 33.8221 39.061 33.7175C38.7997 33.613 38.5202 33.5615 38.2388 33.566C37.0798 33.5835 36.1496 34.5283 36.1497 35.6875C36.1499 36.8466 37.0804 37.791 38.2393 37.8084ZM12.6935 4.24281C12.9744 4.24646 13.2532 4.19428 13.5138 4.08931C13.7744 3.98435 14.0115 3.82867 14.2114 3.63133C14.4113 3.43398 14.5701 3.1989 14.6784 2.93972C14.7868 2.68053 14.8426 2.40241 14.8426 2.12149C14.8426 1.84057 14.7868 1.56245 14.6784 1.30327C14.5701 1.04409 14.4113 0.809 14.2114 0.611656C14.0115 0.414312 13.7744 0.258638 13.5138 0.15367C13.2532 0.0487018 12.9744 -0.00347109 12.6935 0.000179118C11.5343 0.0179105 10.6041 0.962328 10.6041 2.12149C10.6041 3.28066 11.5343 4.22525 12.6935 4.24281Z" fill="#FFCD59"/>
<path d="M25.2439 18.9743C24.9923 18.9743 24.744 18.9169 24.5179 18.8066C24.2918 18.6963 24.0937 18.5359 23.9388 18.3377C23.7839 18.1395 23.6762 17.9086 23.6238 17.6625C23.5715 17.4164 23.5758 17.1616 23.6366 16.9175C23.7028 16.6521 23.7569 16.3856 23.7976 16.1196C23.3005 16.3248 22.771 16.4403 22.2336 16.4606C21.2702 16.4973 20.4077 16.3349 19.6725 15.9788C18.952 15.6336 18.352 15.0796 17.9505 14.3889C17.1598 13.0184 17.228 11.2155 18.1232 9.79576C18.9766 8.4403 20.4222 7.70669 21.9893 7.82651C23.1965 7.9209 24.2545 8.37296 25.1018 9.14866C25.2562 8.71319 25.4039 8.24734 25.5448 7.7511C26.4104 4.69594 26.6962 1.62806 26.6985 1.59707C26.7181 1.38053 26.7802 1.16996 26.8812 0.97741C26.9821 0.784857 27.1201 0.614092 27.2871 0.474873C27.4541 0.335654 27.6469 0.230711 27.8545 0.16604C28.0621 0.101369 28.2804 0.078238 28.4969 0.0979694C28.9342 0.137959 29.3377 0.349889 29.6188 0.687196C29.8999 1.0245 30.0355 1.4596 29.996 1.89689C29.984 2.03427 29.6794 5.30525 28.7301 8.6554C28.2508 10.347 27.6845 11.7765 27.043 12.9177C27.0902 13.1721 27.1279 13.4331 27.156 13.7008C27.2896 14.9923 27.1832 16.3827 26.849 17.7208C26.759 18.0785 26.5523 18.396 26.2616 18.623C25.9708 18.85 25.6127 18.9738 25.2439 18.9743ZM21.6397 11.1245C21.4685 11.1245 21.1669 11.1747 20.924 11.5598C20.6916 11.9287 20.6461 12.4325 20.8187 12.7318C21.0483 13.13 21.7239 13.1647 22.1065 13.1502C22.5406 13.1337 22.9855 12.8615 23.4208 12.3654C23.3483 12.2135 23.2626 12.0684 23.1646 11.9316C22.8052 11.4324 22.3502 11.1772 21.7322 11.1288C21.7089 11.1274 21.6775 11.1245 21.6397 11.1245Z" fill="#59B2FF"/>
<path d="M20.4825 23.5107C13.6151 18.0974 6.43717 15.7521 4.45018 18.2726C4.26322 18.5123 4.12581 18.7868 4.04594 19.0802C4.03377 19.1158 4.02443 19.1523 4.018 19.1894V19.1937C3.99138 19.3068 3.9715 19.4212 3.95836 19.5371L0.070362 42.3009C-0.552384 45.9568 3.06678 48.8839 6.51221 47.5116L27.5966 39.1101C27.9684 38.9622 28.8834 38.397 29.1338 38.085C29.2002 38.02 29.2621 37.9512 29.3196 37.8784C31.3062 35.3575 27.3494 28.9254 20.4825 23.5101V23.5107Z" fill="#FFCD59"/>
<path d="M29.3173 37.8795C31.3053 35.3577 27.35 28.9243 20.4826 23.5107C13.6152 18.0969 6.43633 15.7526 4.44845 18.2744C2.46057 20.7962 6.41555 27.2296 13.283 32.6432C20.1504 38.057 27.3292 40.4013 29.3173 37.8795Z" fill="#FFCD59"/>
<path d="M28.1183 36.4109C29.7496 34.3411 26.1561 28.7876 20.0914 24.0068C14.0268 19.2256 7.78748 17.0278 6.15638 19.097C4.52474 21.1667 8.11829 26.7202 14.1829 31.5011C20.2474 36.2823 26.4869 38.4806 28.1183 36.4109Z" fill="#FFCD59"/>
<path d="M21.2302 25.9795C21.5111 25.9831 21.7899 25.9309 22.0505 25.826C22.311 25.721 22.5482 25.5653 22.7481 25.368C22.948 25.1706 23.1068 24.9356 23.2151 24.6764C23.3234 24.4172 23.3792 24.1391 23.3792 23.8582C23.3792 23.5772 23.3234 23.2991 23.2151 23.0399C23.1068 22.7807 22.948 22.5457 22.7481 22.3483C22.5482 22.151 22.311 21.9953 22.0505 21.8903C21.7899 21.7854 21.5111 21.7332 21.2302 21.7368C20.0712 21.7544 19.1407 22.699 19.1407 23.8582C19.1407 25.0173 20.0712 25.9619 21.2302 25.9795Z" fill="#59B2FF"/>
<path d="M32.6708 21.852L32.6864 21.8346C32.7057 21.8139 32.7415 21.7755 32.7931 21.7234C32.9538 21.5636 33.1211 21.4106 33.2946 21.2649C33.9322 20.7312 34.6289 20.2727 35.3711 19.8983C37.1851 18.9804 39.886 18.2314 43.4282 19.0481C44.4926 19.2935 45.5541 18.6297 45.7997 17.5655C46.0451 16.5013 45.3813 15.4395 44.3171 15.1942C39.7316 14.1369 36.0859 15.1035 33.5848 16.3702C32.5692 16.8826 31.6162 17.5106 30.7447 18.2416C30.4832 18.4614 30.2313 18.6924 29.9898 18.934C29.8961 19.0282 29.8047 19.1246 29.7157 19.2233L29.6942 19.2475L29.6867 19.2561L29.6831 19.26L29.6819 19.2614C29.6814 19.2623 29.6803 19.2632 31.1794 20.5528L29.6803 19.2632C28.9859 20.091 29.0842 21.3229 29.9011 22.03C30.718 22.7371 31.9511 22.658 32.6708 21.852ZM13.08 7.74591C12.9324 7.51168 12.7402 7.30885 12.5141 7.14905C12.2881 6.98925 12.0327 6.87562 11.7627 6.81466C11.4927 6.7537 11.2133 6.74661 10.9405 6.79381C10.6677 6.841 10.407 6.94154 10.1731 7.08967C9.93912 7.23735 9.73652 7.42969 9.57688 7.65569C9.41725 7.88169 9.30371 8.13694 9.24275 8.40684C9.18179 8.67673 9.17461 8.956 9.22161 9.22867C9.26862 9.50135 9.36889 9.76209 9.51669 9.996C9.59317 10.1183 11.1605 12.6575 11.4825 16.135C11.8103 19.6682 10.7722 22.9159 8.39246 25.8281C9.19377 26.8465 10.1581 27.905 11.2596 28.9637C12.7837 27.2024 13.9305 25.3096 14.684 23.307C15.6109 20.8433 15.9388 18.2309 15.6593 15.5432C15.2138 11.2673 13.3536 8.18024 13.08 7.74591Z" fill="#FF598B"/>
<path d="M39.4463 28.0438C40.5213 28.322 41.2811 28.6252 41.6094 28.7663C41.9931 29.0018 42.4417 29.1092 42.8905 29.0732C43.3392 29.0371 43.7649 28.8594 44.1061 28.5657C44.3321 28.3704 44.5144 28.1297 44.6412 27.8592C44.7679 27.5887 44.8362 27.2945 44.8417 26.9959C44.8492 26.5458 44.7134 26.1049 44.4539 25.737C44.1944 25.3692 43.8247 25.0933 43.3981 24.9494C42.3919 24.5026 38.5793 22.9936 33.5395 23.2617C30.1471 23.4421 26.8848 24.3817 23.844 26.0572C20.9647 27.6441 18.2911 29.8922 15.8638 32.7602C17.0219 33.5842 18.2282 34.3382 19.4764 35.0181C23.5746 30.3471 28.3032 27.8151 33.5719 27.4805C35.5475 27.3606 37.5295 27.5507 39.4463 28.0438Z" fill="#59B2FF"/>
</g>
<path d="M67.6908 27.84C66.1441 28.0533 64.8641 28.16 63.8508 28.16C63.5041 28.16 63.3308 28.0267 63.3308 27.76C63.3308 27.1467 63.7441 26.5067 64.5708 25.84C65.4241 25.1467 66.7974 24.5467 68.6908 24.04C69.5441 21 70.5174 18.2133 71.6108 15.68C68.9441 15.8133 66.7574 16.6933 65.0508 18.32C64.6241 18.7467 64.2774 19.08 64.0108 19.32C63.7441 19.56 63.5041 19.68 63.2908 19.68C63.1041 19.68 62.9174 19.52 62.7308 19.2C62.5441 18.88 62.4508 18.4533 62.4508 17.92C62.4774 15.8667 63.8641 14.2 66.6108 12.92C69.3574 11.64 72.7441 11.0133 76.7708 11.04L88.7708 11.24C89.4908 11.24 89.8508 11.52 89.8508 12.08C89.8508 12.24 89.7441 12.5333 89.5308 12.96C89.3174 13.36 89.1308 13.8 88.9708 14.28C88.6241 15.24 87.8774 15.72 86.7308 15.72H85.4508L80.1308 15.68H77.0508C76.8374 17.2 76.1974 19.68 75.1308 23.12L82.4508 23.24C82.8774 23.24 83.0908 23.4933 83.0908 24C83.0908 24.16 83.0241 24.44 82.8908 24.84C82.7574 25.24 82.6374 25.6533 82.5308 26.08C82.3174 26.96 81.8641 27.4 81.1708 27.4L75.0908 27.12H74.5708C74.4108 27.12 74.2241 27.1333 74.0108 27.16C72.6241 32.2533 71.9308 36.28 71.9308 39.24C71.9308 40.8133 70.3974 41.6 67.3308 41.6C66.6641 41.6 66.2641 41.2667 66.1308 40.6C66.0241 39.9067 65.9708 39 65.9708 37.88C65.9708 35.48 66.5441 32.1333 67.6908 27.84ZM93.5817 36.64C95.6617 36.64 97.675 35.8133 99.6217 34.16C100.342 33.5467 100.928 32.9867 101.382 32.48C101.835 31.9467 102.182 31.68 102.422 31.68C102.795 31.68 102.982 32.0533 102.982 32.8C102.982 33.5467 102.782 34.3867 102.382 35.32C101.982 36.2267 101.315 37.12 100.382 38C98.0884 40.16 94.9417 41.24 90.9417 41.24C87.7684 41.24 85.6084 40.0933 84.4617 37.8C84.0617 37 83.8617 35.8533 83.8617 34.36C83.8617 32.8667 84.155 31.32 84.7417 29.72C85.3284 28.0933 86.1017 26.6933 87.0617 25.52C88.0484 24.3467 89.1817 23.44 90.4617 22.8C91.7417 22.1333 93.1017 21.8 94.5417 21.8C96.0084 21.8 97.1284 22.16 97.9017 22.88C98.7017 23.6 99.1017 24.5333 99.1017 25.68C99.1017 26.8267 98.8084 27.7733 98.2217 28.52C97.6617 29.24 96.9284 29.8533 96.0217 30.36C95.115 30.84 94.1017 31.28 92.9817 31.68C91.8884 32.0533 90.8084 32.48 89.7417 32.96V33.96C89.7684 34.92 90.1684 35.6 90.9417 36C91.715 36.4 92.595 36.6133 93.5817 36.64ZM92.9017 25.36C91.515 25.36 90.555 26.9733 90.0217 30.2C90.5817 29.8267 91.1017 29.4933 91.5817 29.2C92.0884 28.9067 92.5284 28.6267 92.9017 28.36C93.7017 27.7733 94.115 27.1067 94.1417 26.36C94.1417 25.6933 93.7284 25.36 92.9017 25.36ZM110.1 21.64C111.887 21.6133 113.22 21.9467 114.1 22.64C114.98 23.3067 115.42 24.28 115.42 25.56C115.42 26.8133 115.034 27.8933 114.26 28.8C113.514 29.68 112.594 30.3067 111.5 30.68C112.274 31.48 112.967 32.2933 113.58 33.12C114.22 33.9467 114.54 34.8133 114.54 35.72C114.54 37.5067 113.834 38.8933 112.42 39.88C111.007 40.84 109.034 41.32 106.5 41.32C103.994 41.32 102.114 40.8267 100.86 39.84C99.6071 38.8267 98.9805 37.6933 98.9805 36.44C98.9805 35.16 99.2871 34 99.9005 32.96C100.54 31.92 101.22 31.4 101.94 31.4C102.367 31.4 102.674 31.56 102.86 31.88C103.047 32.1733 103.394 33.0533 103.9 34.52C104.087 35.0533 104.394 35.56 104.82 36.04C105.807 37.1333 107.367 37.68 109.5 37.68C109.18 36.6667 108.66 35.8 107.94 35.08C107.247 34.3333 106.554 33.6133 105.86 32.92C105.167 32.2267 104.554 31.4933 104.02 30.72C103.487 29.92 103.22 28.9867 103.22 27.92C103.22 26 103.94 24.44 105.38 23.24C106.74 22.1733 108.314 21.64 110.1 21.64ZM109.94 29.04C111.007 27.8933 111.54 26.9733 111.54 26.28C111.54 25.96 111.42 25.68 111.18 25.44C110.967 25.1733 110.647 25.04 110.22 25.04C109.794 25.04 109.38 25.0933 108.98 25.2C108.607 25.3067 108.3 25.3867 108.06 25.44C108.06 26.4533 108.687 27.6533 109.94 29.04ZM118.795 38.84C118.502 38.12 118.288 37.2933 118.155 36.36C118.022 35.4 117.955 34.0667 117.955 32.36C117.955 30.6533 118.275 28.3467 118.915 25.44H117.115C116.795 25.44 116.635 25.3067 116.635 25.04C116.635 24.4 116.688 23.88 116.795 23.48C116.928 23.0533 117.222 22.5733 117.675 22.04H118.635C119.008 22.04 119.408 22.0267 119.835 22C121.115 17.8933 122.422 15.84 123.755 15.84C124.822 15.8667 125.568 16.5467 125.995 17.88C126.102 18.2533 126.222 18.6533 126.355 19.08L124.715 21.96C126.582 22.0133 127.755 22.04 128.235 22.04C128.742 22.04 129.008 22.0933 129.035 22.2C129.088 22.28 129.115 22.4133 129.115 22.6C129.115 23.08 128.995 23.68 128.755 24.4C128.542 25.12 128.288 25.4667 127.995 25.44L123.995 25.24C123.435 28.4933 123.155 31.1867 123.155 33.32C123.155 35.4533 123.462 36.52 124.075 36.52C124.582 36.52 125.502 36.1067 126.835 35.28C128.168 34.4267 129.128 33.6133 129.715 32.84C130.302 32.0667 130.782 31.68 131.155 31.68C131.528 31.68 131.715 32.1333 131.715 33.04C131.715 33.9467 131.395 34.88 130.755 35.84C130.115 36.7733 129.302 37.64 128.315 38.44C127.355 39.2133 126.275 39.8533 125.075 40.36C123.902 40.8667 122.875 41.12 121.995 41.12C121.115 41.12 120.435 40.92 119.955 40.52C119.502 40.0933 119.115 39.5333 118.795 38.84ZM134.53 41.12C131.864 41.12 130.53 38.6267 130.53 33.64C130.53 30.92 130.864 28.4533 131.53 26.24C132.57 22.8267 133.744 21.12 135.05 21.12C135.824 21.12 136.437 21.64 136.89 22.68C137.264 23.48 137.437 24.2667 137.41 25.04C137.41 26.1067 137.09 27.9867 136.45 30.68C135.837 33.0267 135.53 34.48 135.53 35.04C135.53 35.6 135.664 35.9867 135.93 36.2C136.224 36.4133 136.557 36.52 136.93 36.52C137.33 36.52 137.824 36.2667 138.41 35.76C138.997 35.2533 139.584 34.7067 140.17 34.12C140.757 33.5067 141.29 32.9467 141.77 32.44C142.277 31.9333 142.624 31.68 142.81 31.68C143.184 31.68 143.37 32.1333 143.37 33.04C143.37 34.9067 142.424 36.7333 140.53 38.52C138.664 40.28 136.664 41.1467 134.53 41.12ZM136.17 17.88C135.45 16.8133 135.09 15.6667 135.09 14.44C135.09 13.2133 135.277 12.2 135.65 11.4C136.05 10.5733 136.424 9.97333 136.77 9.6C137.117 9.2 137.517 9 137.97 9C138.717 9 139.397 9.56 140.01 10.68C140.624 11.7733 140.93 12.6933 140.93 13.44C140.93 14.8267 140.437 15.92 139.45 16.72C138.49 17.4933 137.397 17.88 136.17 17.88ZM147.691 23.4C147.691 25.1867 147.371 27.2133 146.731 29.48C146.784 30.3333 146.811 31.16 146.811 31.96C146.811 32.76 146.864 33.4533 146.971 34.04C147.371 35.1067 147.878 35.76 148.491 36C149.024 36 149.611 35.5467 150.251 34.64C150.891 33.7067 151.544 32.6 152.211 31.32C151.891 30.0933 151.731 28.9333 151.731 27.84C151.731 25.92 152.024 24.52 152.611 23.64C153.331 22.52 154.424 21.96 155.891 21.96C157.358 21.96 158.331 22.52 158.811 23.64C158.998 24.0667 159.091 24.5467 159.091 25.08C159.091 26.04 158.851 27.0267 158.371 28.04C157.891 29.0267 157.118 30.3333 156.051 31.96C156.531 33.3733 157.251 34.08 158.211 34.08C159.384 34.0533 160.398 33.64 161.251 32.84C161.571 32.52 161.838 32.24 162.051 32C162.291 31.76 162.531 31.64 162.771 31.64C163.144 31.64 163.331 32.08 163.331 32.96C163.331 34.6133 162.851 35.8267 161.891 36.6C160.958 37.3467 159.771 37.72 158.331 37.72C156.438 37.72 154.931 36.8933 153.811 35.24C150.691 39.2933 148.078 41.32 145.971 41.32C145.144 41.32 144.331 40.1467 143.531 37.8C142.731 35.4533 142.118 32.28 141.691 28.28C141.371 25.7467 141.558 23.9333 142.251 22.84C142.838 21.9867 143.984 21.56 145.691 21.56C146.331 21.56 146.824 21.76 147.171 22.16C147.518 22.5333 147.691 22.9467 147.691 23.4ZM166.327 41.12C163.661 41.12 162.327 38.6267 162.327 33.64C162.327 30.92 162.661 28.4533 163.327 26.24C164.367 22.8267 165.541 21.12 166.847 21.12C167.621 21.12 168.234 21.64 168.687 22.68C169.061 23.48 169.234 24.2667 169.207 25.04C169.207 26.1067 168.887 27.9867 168.247 30.68C167.634 33.0267 167.327 34.48 167.327 35.04C167.327 35.6 167.461 35.9867 167.727 36.2C168.021 36.4133 168.354 36.52 168.727 36.52C169.127 36.52 169.621 36.2667 170.207 35.76C170.794 35.2533 171.381 34.7067 171.967 34.12C172.554 33.5067 173.087 32.9467 173.567 32.44C174.074 31.9333 174.421 31.68 174.607 31.68C174.981 31.68 175.167 32.1333 175.167 33.04C175.167 34.9067 174.221 36.7333 172.327 38.52C170.461 40.28 168.461 41.1467 166.327 41.12ZM167.967 17.88C167.247 16.8133 166.887 15.6667 166.887 14.44C166.887 13.2133 167.074 12.2 167.447 11.4C167.847 10.5733 168.221 9.97333 168.567 9.6C168.914 9.2 169.314 9 169.767 9C170.514 9 171.194 9.56 171.807 10.68C172.421 11.7733 172.727 12.6933 172.727 13.44C172.727 14.8267 172.234 15.92 171.247 16.72C170.287 17.4933 169.194 17.88 167.967 17.88ZM174.928 38.84C174.635 38.12 174.421 37.2933 174.288 36.36C174.155 35.4 174.088 34.0667 174.088 32.36C174.088 30.6533 174.408 28.3467 175.048 25.44H173.248C172.928 25.44 172.768 25.3067 172.768 25.04C172.768 24.4 172.821 23.88 172.928 23.48C173.061 23.0533 173.355 22.5733 173.808 22.04H174.768C175.141 22.04 175.541 22.0267 175.968 22C177.248 17.8933 178.555 15.84 179.888 15.84C180.955 15.8667 181.701 16.5467 182.128 17.88C182.235 18.2533 182.355 18.6533 182.488 19.08L180.848 21.96C182.715 22.0133 183.888 22.04 184.368 22.04C184.875 22.04 185.141 22.0933 185.168 22.2C185.221 22.28 185.248 22.4133 185.248 22.6C185.248 23.08 185.128 23.68 184.888 24.4C184.675 25.12 184.421 25.4667 184.128 25.44L180.128 25.24C179.568 28.4933 179.288 31.1867 179.288 33.32C179.288 35.4533 179.595 36.52 180.208 36.52C180.715 36.52 181.635 36.1067 182.968 35.28C184.301 34.4267 185.261 33.6133 185.848 32.84C186.435 32.0667 186.915 31.68 187.288 31.68C187.661 31.68 187.848 32.1333 187.848 33.04C187.848 33.9467 187.528 34.88 186.888 35.84C186.248 36.7733 185.435 37.64 184.448 38.44C183.488 39.2133 182.408 39.8533 181.208 40.36C180.035 40.8667 179.008 41.12 178.128 41.12C177.248 41.12 176.568 40.92 176.088 40.52C175.635 40.0933 175.248 39.5333 174.928 38.84ZM195.183 36.64C197.263 36.64 199.277 35.8133 201.223 34.16C201.943 33.5467 202.53 32.9867 202.983 32.48C203.437 31.9467 203.783 31.68 204.023 31.68C204.397 31.68 204.583 32.0533 204.583 32.8C204.583 33.5467 204.383 34.3867 203.983 35.32C203.583 36.2267 202.917 37.12 201.983 38C199.69 40.16 196.543 41.24 192.543 41.24C189.37 41.24 187.21 40.0933 186.063 37.8C185.663 37 185.463 35.8533 185.463 34.36C185.463 32.8667 185.757 31.32 186.343 29.72C186.93 28.0933 187.703 26.6933 188.663 25.52C189.65 24.3467 190.783 23.44 192.063 22.8C193.343 22.1333 194.703 21.8 196.143 21.8C197.61 21.8 198.73 22.16 199.503 22.88C200.303 23.6 200.703 24.5333 200.703 25.68C200.703 26.8267 200.41 27.7733 199.823 28.52C199.263 29.24 198.53 29.8533 197.623 30.36C196.717 30.84 195.703 31.28 194.583 31.68C193.49 32.0533 192.41 32.48 191.343 32.96V33.96C191.37 34.92 191.77 35.6 192.543 36C193.317 36.4 194.197 36.6133 195.183 36.64ZM194.503 25.36C193.117 25.36 192.157 26.9733 191.623 30.2C192.183 29.8267 192.703 29.4933 193.183 29.2C193.69 28.9067 194.13 28.6267 194.503 28.36C195.303 27.7733 195.717 27.1067 195.743 26.36C195.743 25.6933 195.33 25.36 194.503 25.36Z" fill="#FF598B"/>
<defs>
<clipPath id="clip0_5106_520">
<rect width="45.8507" height="48" fill="white"/>
</clipPath>
</defs>
</svg>
