<svg width="30" height="18" viewBox="0 0 30 18" fill="none" xmlns="http://www.w3.org/2000/svg">
<path fill-rule="evenodd" clip-rule="evenodd" d="M4.33329 2C3.41282 2 2.66663 2.74619 2.66663 3.66667V14.3333C2.66663 15.2538 3.41282 16 4.33329 16H17.6666C18.5871 16 19.3333 15.2538 19.3333 14.3333V10.347C19.3332 10.3373 19.3332 10.3276 19.3333 10.3178V7.01898C19.3331 7.00694 19.3331 6.99491 19.3333 6.9829V3.66667C19.3333 2.74619 18.5871 2 17.6666 2H4.33329ZM21.3333 5.25877V3.66667C21.3333 1.64162 19.6917 0 17.6666 0H4.33329C2.30825 0 0.666626 1.64162 0.666626 3.66667V14.3333C0.666626 16.3584 2.30825 18 4.33329 18H17.6666C19.6917 18 21.3333 16.3584 21.3333 14.3333V12.2019L26.7433 15.8085C26.9943 15.9755 27.2859 16.0713 27.587 16.0858C27.8881 16.1002 28.1875 16.0326 28.4533 15.8903C28.7191 15.748 28.9413 15.5363 29.0962 15.2777C29.2512 15.0191 29.3331 14.7233 29.3333 14.4219V3.49363C29.3333 3.49353 29.3333 3.49373 29.3333 3.49363C29.3333 3.20048 29.256 2.9122 29.1092 2.65845C28.9624 2.40462 28.7511 2.19404 28.4968 2.04796C28.2425 1.90188 27.9542 1.82548 27.661 1.82648C27.3677 1.82747 27.0799 1.90583 26.8266 2.05363L21.3333 5.25877ZM21.3333 7.57431V9.79815L27.3333 13.7982V4.07354L21.3333 7.57431Z" fill="white"/>
</svg>
