<svg width="22" height="30" viewBox="0 0 22 30" fill="none" xmlns="http://www.w3.org/2000/svg">
<path fill-rule="evenodd" clip-rule="evenodd" d="M4.33335 2.66675C4.24495 2.66675 4.16016 2.70187 4.09765 2.76438C4.03514 2.82689 4.00002 2.91168 4.00002 3.00008V14.0001H18V3.00008C18 2.91167 17.9649 2.82689 17.9024 2.76438C17.8399 2.70187 17.7551 2.66675 17.6667 2.66675H14.6667V7.00008C14.6667 7.55237 14.219 8.00008 13.6667 8.00008C13.1144 8.00008 12.6667 7.55237 12.6667 7.00008V2.66675H9.33335V4.33341C9.33335 4.8857 8.88564 5.33341 8.33335 5.33341C7.78107 5.33341 7.33335 4.8857 7.33335 4.33341V2.66675H4.33335ZM4.33335 0.666748C3.71451 0.666748 3.12102 0.912581 2.68344 1.35017C2.24585 1.78775 2.00002 2.38124 2.00002 3.00008V14.2252C1.76099 14.3386 1.54075 14.4929 1.3501 14.6835C0.91252 15.1211 0.666687 15.7146 0.666687 16.3334V17.6667C0.666687 18.6392 1.053 19.5718 1.74063 20.2595C2.42826 20.9471 3.36089 21.3334 4.33335 21.3334H7.00002C7.08843 21.3334 7.17321 21.3685 7.23572 21.431C7.29823 21.4936 7.33335 21.5783 7.33335 21.6667V25.5334C7.33335 26.5059 7.71966 27.4385 8.4073 28.1261C9.09493 28.8138 10.0276 29.2001 11 29.2001C11.9725 29.2001 12.9051 28.8138 13.5927 28.1261C14.2804 27.4385 14.6667 26.5059 14.6667 25.5334V21.6667C14.6667 21.5783 14.7018 21.4936 14.7643 21.431C14.8268 21.3685 14.9116 21.3334 15 21.3334H17.6667C18.6391 21.3334 19.5718 20.9471 20.2594 20.2595C20.947 19.5718 21.3334 18.6392 21.3334 17.6667V16.3334C21.3334 15.7146 21.0875 15.1211 20.6499 14.6835C20.4593 14.4929 20.2391 14.3386 20 14.2252V3.00008C20 2.38124 19.7542 1.78775 19.3166 1.35017C18.879 0.91258 18.2855 0.666748 17.6667 0.666748H4.33335ZM3.00002 16.0001C2.91162 16.0001 2.82683 16.0352 2.76432 16.0977C2.70181 16.1602 2.66669 16.245 2.66669 16.3334V17.6667C2.66669 18.1088 2.84228 18.5327 3.15484 18.8453C3.4674 19.1578 3.89133 19.3334 4.33335 19.3334H7.00002C7.61886 19.3334 8.21235 19.5792 8.64994 20.0168C9.08752 20.4544 9.33335 21.0479 9.33335 21.6667V25.5334C9.33335 25.9754 9.50895 26.3994 9.82151 26.7119C10.1341 27.0245 10.558 27.2001 11 27.2001C11.442 27.2001 11.866 27.0245 12.1785 26.7119C12.4911 26.3994 12.6667 25.9754 12.6667 25.5334V21.6667C12.6667 21.0479 12.9125 20.4544 13.3501 20.0168C13.7877 19.5792 14.3812 19.3334 15 19.3334H17.6667C18.1087 19.3334 18.5326 19.1578 18.8452 18.8453C19.1578 18.5327 19.3334 18.1088 19.3334 17.6667V16.3334C19.3334 16.245 19.2982 16.1602 19.2357 16.0977C19.1732 16.0352 19.0884 16.0001 19 16.0001H3.00002Z" fill="white"/>
</svg>
