<svg width="30" height="30" viewBox="0 0 30 30" fill="none" xmlns="http://www.w3.org/2000/svg">
<path fill-rule="evenodd" clip-rule="evenodd" d="M9.66663 2.66675C9.2246 2.66675 8.80067 2.84234 8.48811 3.1549C8.17555 3.46746 7.99996 3.89139 7.99996 4.33341V27.3334H22V4.33341C22 3.89139 21.8244 3.46746 21.5118 3.1549C21.1992 2.84234 20.7753 2.66675 20.3333 2.66675H9.66663ZM24 10.0001V4.33341C24 3.36095 23.6136 2.42832 22.926 1.74069C22.2384 1.05306 21.3058 0.666748 20.3333 0.666748H9.66663C8.69417 0.666748 7.76153 1.05306 7.0739 1.74069C6.38627 2.42832 5.99996 3.36095 5.99996 4.33341V14.0001H4.33329C3.36083 14.0001 2.4282 14.3864 1.74057 15.074C1.05293 15.7617 0.666626 16.6943 0.666626 17.6667V25.6667C0.666626 26.6392 1.05293 27.5718 1.74057 28.2595C2.4282 28.9471 3.36083 29.3334 4.33329 29.3334H25.6666C26.6391 29.3334 27.5717 28.9471 28.2593 28.2595C28.947 27.5718 29.3333 26.6392 29.3333 25.6667V13.6667C29.3333 12.6943 28.947 11.7617 28.2593 11.074C27.5717 10.3864 26.6391 10.0001 25.6666 10.0001H24ZM24 12.0001V27.3334H25.6666C26.1087 27.3334 26.5326 27.1578 26.8451 26.8453C27.1577 26.5327 27.3333 26.1088 27.3333 25.6667V13.6667C27.3333 13.2247 27.1577 12.8008 26.8451 12.4882C26.5326 12.1757 26.1087 12.0001 25.6666 12.0001H24ZM5.99996 16.0001H4.33329C3.89127 16.0001 3.46734 16.1757 3.15478 16.4882C2.84222 16.8008 2.66663 17.2247 2.66663 17.6667V25.6667C2.66663 26.1088 2.84222 26.5327 3.15478 26.8453C3.46734 27.1578 3.89127 27.3334 4.33329 27.3334H5.99996V16.0001ZM11.3333 7.00008C11.3333 6.4478 11.781 6.00008 12.3333 6.00008H17.6666C18.2189 6.00008 18.6666 6.4478 18.6666 7.00008C18.6666 7.55237 18.2189 8.00008 17.6666 8.00008H12.3333C11.781 8.00008 11.3333 7.55237 11.3333 7.00008ZM11.3333 12.3334C11.3333 11.7811 11.781 11.3334 12.3333 11.3334H17.6666C18.2189 11.3334 18.6666 11.7811 18.6666 12.3334C18.6666 12.8857 18.2189 13.3334 17.6666 13.3334H12.3333C11.781 13.3334 11.3333 12.8857 11.3333 12.3334ZM11.3333 17.6667C11.3333 17.1145 11.781 16.6667 12.3333 16.6667H17.6666C18.2189 16.6667 18.6666 17.1145 18.6666 17.6667C18.6666 18.219 18.2189 18.6667 17.6666 18.6667H12.3333C11.781 18.6667 11.3333 18.219 11.3333 17.6667ZM11.3333 23.0001C11.3333 22.4478 11.781 22.0001 12.3333 22.0001H17.6666C18.2189 22.0001 18.6666 22.4478 18.6666 23.0001C18.6666 23.5524 18.2189 24.0001 17.6666 24.0001H12.3333C11.781 24.0001 11.3333 23.5524 11.3333 23.0001Z" fill="white"/>
</svg>
