<svg width="30" height="22" viewBox="0 0 30 22" fill="none" xmlns="http://www.w3.org/2000/svg">
<path fill-rule="evenodd" clip-rule="evenodd" d="M1.74063 1.74069C2.42826 1.05306 3.36089 0.666748 4.33335 0.666748H25.6667C26.6391 0.666748 27.5718 1.05306 28.2594 1.74069C28.947 2.42832 29.3334 3.36095 29.3334 4.33341V7.00008C29.3334 7.55237 28.8856 8.00008 28.3334 8.00008C27.5377 8.00008 26.7746 8.31615 26.212 8.87876C25.6494 9.44137 25.3334 10.2044 25.3334 11.0001C25.3334 11.7957 25.6494 12.5588 26.212 13.1214C26.7746 13.684 27.5377 14.0001 28.3334 14.0001C28.8856 14.0001 29.3334 14.4478 29.3334 15.0001V17.6667C29.3334 18.6392 28.947 19.5718 28.2594 20.2595C27.5718 20.9471 26.6391 21.3334 25.6667 21.3334H4.33335C3.36089 21.3334 2.42826 20.9471 1.74063 20.2595C1.053 19.5718 0.666687 18.6392 0.666687 17.6667V15.0001C0.666687 14.4478 1.1144 14.0001 1.66669 14.0001C2.46234 14.0001 3.2254 13.684 3.78801 13.1214C4.35062 12.5588 4.66669 11.7957 4.66669 11.0001C4.66669 10.2044 4.35062 9.44137 3.78801 8.87876C3.2254 8.31615 2.46234 8.00008 1.66669 8.00008C1.1144 8.00008 0.666687 7.55237 0.666687 7.00008V4.33341C0.666687 3.36095 1.053 2.42832 1.74063 1.74069ZM17.3334 19.3334V17.6667C17.3334 17.1145 16.8856 16.6667 16.3334 16.6667C15.7811 16.6667 15.3334 17.1145 15.3334 17.6667V19.3334H4.33335C3.89133 19.3334 3.4674 19.1578 3.15484 18.8453C2.84228 18.5327 2.66669 18.1088 2.66669 17.6667V15.8991C3.62013 15.7044 4.50384 15.234 5.20222 14.5356C6.1399 13.5979 6.66669 12.3262 6.66669 11.0001C6.66669 9.674 6.1399 8.40223 5.20222 7.46455C4.50384 6.76616 3.62013 6.29572 2.66669 6.10108V4.33341C2.66669 3.89139 2.84228 3.46746 3.15484 3.1549C3.4674 2.84234 3.89133 2.66675 4.33335 2.66675H15.3334V4.33341C15.3334 4.8857 15.7811 5.33341 16.3334 5.33341C16.8856 5.33341 17.3334 4.8857 17.3334 4.33341V2.66675H25.6667C26.1087 2.66675 26.5326 2.84234 26.8452 3.1549C27.1578 3.46746 27.3334 3.89139 27.3334 4.33341V6.10108C26.3799 6.29572 25.4962 6.76616 24.7978 7.46455C23.8601 8.40223 23.3334 9.674 23.3334 11.0001C23.3334 12.3262 23.8601 13.5979 24.7978 14.5356C25.4962 15.234 26.3799 15.7044 27.3334 15.8991V17.6667C27.3334 18.1088 27.1578 18.5327 26.8452 18.8453C26.5326 19.1578 26.1087 19.3334 25.6667 19.3334H17.3334ZM16.3334 8.66675C16.8856 8.66675 17.3334 9.11446 17.3334 9.66675V12.3334C17.3334 12.8857 16.8856 13.3334 16.3334 13.3334C15.7811 13.3334 15.3334 12.8857 15.3334 12.3334V9.66675C15.3334 9.11446 15.7811 8.66675 16.3334 8.66675Z" fill="white"/>
</svg>
