<svg width="26" height="26" viewBox="0 0 26 26" fill="none" xmlns="http://www.w3.org/2000/svg">
<path fill-rule="evenodd" clip-rule="evenodd" d="M12.2929 0.292893C12.6834 -0.0976311 13.3166 -0.0976311 13.7071 0.292893L20.3738 6.95956C20.7643 7.35008 20.7643 7.98325 20.3738 8.37377C19.9832 8.7643 19.3501 8.7643 18.9596 8.37377L14 3.41421V17C14 17.5523 13.5523 18 13 18C12.4477 18 12 17.5523 12 17V3.41421L7.04044 8.37377C6.64992 8.7643 6.01675 8.7643 5.62623 8.37377C5.2357 7.98325 5.2357 7.35008 5.62623 6.95956L12.2929 0.292893ZM1 16C1.55228 16 2 16.4477 2 17V22.3333C2 22.7754 2.17559 23.1993 2.48816 23.5118C2.80072 23.8244 3.22464 24 3.66667 24H22.3333C22.7754 24 23.1993 23.8244 23.5118 23.5118C23.8244 23.1993 24 22.7754 24 22.3333V17C24 16.4477 24.4477 16 25 16C25.5523 16 26 16.4477 26 17V22.3333C26 23.3058 25.6137 24.2384 24.9261 24.9261C24.2384 25.6137 23.3058 26 22.3333 26H3.66667C2.69421 26 1.76157 25.6137 1.07394 24.9261C0.386308 24.2384 0 23.3058 0 22.3333V17C0 16.4477 0.447715 16 1 16Z" fill="white"/>
</svg>
