<svg width="26" height="30" viewBox="0 0 26 30" fill="none" xmlns="http://www.w3.org/2000/svg">
<path fill-rule="evenodd" clip-rule="evenodd" d="M7.66667 0.666748C8.21895 0.666748 8.66667 1.11446 8.66667 1.66675V3.33341H17.3333V1.66675C17.3333 1.11446 17.781 0.666748 18.3333 0.666748C18.8856 0.666748 19.3333 1.11446 19.3333 1.66675V3.33341H22.3333C24.3584 3.33341 26 4.97504 26 7.00008V25.6667C26 27.6918 24.3584 29.3334 22.3333 29.3334H3.66667C1.64162 29.3334 0 27.6918 0 25.6667V7.00008C0 4.97504 1.64162 3.33341 3.66667 3.33341H6.66667V1.66675C6.66667 1.11446 7.11438 0.666748 7.66667 0.666748ZM3.66667 5.33341C2.74619 5.33341 2 6.07961 2 7.00008V25.6667C2 26.5872 2.74619 27.3334 3.66667 27.3334H22.3333C23.2538 27.3334 24 26.5872 24 25.6667V7.00008C24 6.07961 23.2538 5.33341 22.3333 5.33341H3.66667ZM13 10.6667C12.0795 10.6667 11.3333 11.4129 11.3333 12.3334C11.3333 13.2539 12.0795 14.0001 13 14.0001C13.9205 14.0001 14.6667 13.2539 14.6667 12.3334C14.6667 11.4129 13.9205 10.6667 13 10.6667ZM9.33333 12.3334C9.33333 10.3084 10.975 8.66675 13 8.66675C15.025 8.66675 16.6667 10.3084 16.6667 12.3334C16.6667 14.3585 15.025 16.0001 13 16.0001C10.975 16.0001 9.33333 14.3585 9.33333 12.3334ZM6.40728 20.4074C7.09491 19.7197 8.02754 19.3334 9 19.3334H17C17.9725 19.3334 18.9051 19.7197 19.5927 20.4074C20.2804 21.095 20.6667 22.0276 20.6667 23.0001C20.6667 23.5524 20.219 24.0001 19.6667 24.0001C19.1144 24.0001 18.6667 23.5524 18.6667 23.0001C18.6667 22.5581 18.4911 22.1341 18.1785 21.8216C17.866 21.509 17.442 21.3334 17 21.3334H9C8.55797 21.3334 8.13405 21.509 7.82149 21.8216C7.50893 22.1341 7.33333 22.5581 7.33333 23.0001C7.33333 23.5524 6.88562 24.0001 6.33333 24.0001C5.78105 24.0001 5.33333 23.5524 5.33333 23.0001C5.33333 22.0276 5.71964 21.095 6.40728 20.4074Z" fill="white"/>
</svg>
